PathFileType	4	(X/Y/Z)	c:/Users/goper/Files/vsCode/490R/osim_files/A02/A02_Fast_06.trc
DataRate	CameraRate	NumFrames	NumMarkers	Units                	OrigDataRate	OrigDataStartFrame	OrigNumFrames
250.00	250.00	6	36	mm	250.0	1633	2612
                Frame#	Time	Mobility_markerset:LPSIS			Mobility_markerset:LASIS			Mobility_markerset:LTH1			Mobility_markerset:LTH2			Mobility_markerset:LTH3			Mobility_markerset:LTH4			Mobility_markerset:LLFE			Mobility_markerset:LMFE			Mobility_markerset:LSH1			Mobility_markerset:LSH2			Mobility_markerset:LSH3			Mobility_markerset:LSH4			Mobility_markerset:LLMAL			Mobility_markerset:LMMAL			Mobility_markerset:LCAL			Mobility_markerset:LMTP5			Mobility_markerset:LTOE			Mobility_markerset:LMTP1			Mobility_markerset:RPSIS			Mobility_markerset:RASIS			Mobility_markerset:RTH1			Mobility_markerset:RTH2			Mobility_markerset:RTH3			Mobility_markerset:RTH4			Mobility_markerset:RLFE			Mobility_markerset:RMFE			Mobility_markerset:RSH1			Mobility_markerset:RSH2			Mobility_markerset:RSH3			Mobility_markerset:RSH4			Mobility_markerset:RLMAL			Mobility_markerset:RMMAL			Mobility_markerset:RCAL			Mobility_markerset:RMTP1			Mobility_markerset:RTOE			Mobility_markerset:RMTP5		
		X1	Y1	Z1	X2	Y2	Z2	X3	Y3	Z3	X4	Y4	Z4	X5	Y5	Z5	X6	Y6	Z6	X7	Y7	Z7	X8	Y8	Z8	X9	Y9	Z9	X10	Y10	Z10	X11	Y11	Z11	X12	Y12	Z12	X13	Y13	Z13	X14	Y14	Z14	X15	Y15	Z15	X16	Y16	Z16	X17	Y17	Z17	X18	Y18	Z18	X19	Y19	Z19	X20	Y20	Z20	X21	Y21	Z21	X22	Y22	Z22	X23	Y23	Z23	X24	Y24	Z24	X25	Y25	Z25	X26	Y26	Z26	X27	Y27	Z27	X28	Y28	Z28	X29	Y29	Z29	X30	Y30	Z30	X31	Y31	Z31	X32	Y32	Z32	X33	Y33	Z33	X34	Y34	Z34	X35	Y35	Z35	X36	Y36	Z36

1633	6.52800	-2421.15649	971.90759	307.42923	-2562.52979	937.31042	388.35968	-2517.92334	677.20709	421.56744	-2540.84106	635.72076	419.92358	-2572.98999	699.67365	439.67868	-2586.81982	657.07977	432.57620	-2638.04590	487.51410	398.45575	-2657.72314	464.05984	279.04764	-2551.85571	449.50705	400.18665	-2527.29761	412.28696	406.08432	-2600.03613	412.69028	402.91623	-2570.25488	379.76401	408.99722	-2413.85132	182.14981	371.36343	-2423.85034	191.90877	289.16898	-2344.56787	206.34474	334.57196	-2455.18726	72.96402	362.76816	-2506.43848	78.49052	295.63696	-2459.78101	86.48212	251.44237	-2433.05933	988.82947	206.88098	-2590.44580	956.92279	144.72296	-2548.99072	635.84473	126.92647	-2555.71558	592.21466	127.07233	-2609.82056	638.74200	127.27291	-2607.09180	595.67139	126.03771	-2573.93018	480.17865	118.38807	-2596.97705	483.63437	251.25575	-2562.09790	295.55106	140.57492	-2567.47144	249.67374	150.94395	-2621.97632	296.04056	136.77458	-2618.69678	249.30534	143.98906	-2567.95142	91.23901	152.15187	-2581.08545	95.76405	236.75151	-2518.06641	72.64823	197.35822	-2706.32153	61.91655	226.93405	-2726.69214	74.08513	191.88303	-2696.08057	59.19078	135.52519
1634	6.53200	-2426.08838	972.56171	307.28745	-2567.99194	937.95746	388.16968	-2525.26001	678.10919	421.68991	-2548.16211	636.70233	419.79691	-2579.83887	701.07971	439.56729	-2594.08545	658.54462	432.23975	-2646.85938	489.38080	397.75992	-2667.05249	466.12030	278.53186	-2560.85229	449.59421	398.73392	-2537.11230	411.97339	404.75943	-2609.78979	413.98801	402.39407	-2580.61108	380.47015	408.41504	-2428.81934	179.07433	370.88867	-2439.28076	188.38040	288.54782	-2359.01733	200.60847	333.16705	-2474.10254	71.66525	363.86844	-2525.68311	77.94737	297.09988	-2479.27954	84.25645	252.86450	-2438.34106	989.08917	206.78491	-2595.19995	957.03766	144.63437	-2552.31689	636.34961	126.45811	-2559.44897	592.46893	127.64654	-2613.44824	638.73090	127.20216	-2610.53662	595.71893	126.00084	-2576.44067	480.43082	118.30460	-2599.53369	483.66125	251.26820	-2563.02417	295.39743	141.54483	-2568.26123	250.25488	150.87436	-2623.48511	295.96677	136.69812	-2619.90869	249.21158	143.99878	-2568.19995	91.38815	152.26315	-2581.25977	95.78715	236.74988	-2518.48413	72.64243	197.66631	-2706.45923	61.61961	226.96358	-2726.82300	73.80527	191.88683	-2696.23071	59.02388	135.54872
1635	6.53600	-2431.72437	972.97522	307.71710	-2573.20020	938.40076	388.15488	-2532.18701	678.82587	421.74594	-2555.60938	637.73083	419.76425	-2586.68042	702.34393	439.34637	-2603.17480	660.74304	432.39157	-2655.53784	491.13501	397.01862	-2676.21265	468.09851	278.04071	-2569.78223	449.68091	397.20010	-2546.61621	411.63373	403.21631	-2619.45459	415.25204	401.73187	-2590.85083	381.16623	407.85110	-2444.00757	175.83472	370.13464	-2454.97559	184.85117	287.92032	-2373.88965	194.79039	331.73221	-2492.89917	70.26708	364.99863	-2544.81152	77.52205	298.60043	-2497.95508	81.04298	253.20392	-2443.71436	989.50214	206.96654	-2599.97192	957.20874	144.53366	-2556.06055	636.93231	126.47027	-2562.37891	593.09503	127.11626	-2617.13672	638.71844	127.24172	-2613.88818	595.77307	125.90167	-2578.66235	480.58322	118.19775	-2602.25928	483.79532	251.23151	-2564.51074	295.65182	141.65088	0.00000	0.00000	0.00000	-2624.83594	295.92508	136.62593	-2621.06177	249.23232	143.94147	-2568.42554	91.54184	152.36948	-2581.37891	95.76031	236.69778	-2518.59619	72.86308	197.69415	-2706.57178	61.33928	227.02046	-2726.97339	73.44490	191.93509	-2696.38452	58.87793	135.57758
1636	6.54000	-2436.85596	973.37219	307.76410	-2578.39453	938.71033	387.94150	-2539.00513	679.54828	421.80334	0.00000	0.00000	0.00000	-2593.40234	703.52838	439.10297	0.00000	0.00000	0.00000	-2664.11182	492.91397	396.41385	-2685.32886	470.04111	277.61624	-2578.42651	449.73160	395.48163	-2556.16968	411.18689	401.79807	-2628.93164	416.45386	401.12970	-2601.10767	381.78616	407.21359	-2459.42627	172.58316	369.62875	-2470.72583	181.26288	287.32004	-2388.73413	188.81651	330.19421	-2511.90015	69.15450	366.13687	-2564.36279	77.32121	300.01694	-2518.19702	79.11457	254.95425	-2448.45947	990.41205	206.98286	-2606.61011	957.62567	144.63640	-2559.69214	637.21808	126.38052	-2566.10742	593.15283	127.57297	-2620.80664	638.69299	127.21735	-2617.52637	595.86530	125.91661	-2582.27026	480.96829	118.33749	-2604.85840	483.70474	250.87567	-2566.66919	296.62259	140.49869	-2570.77148	250.81166	150.94029	-2626.25806	295.82419	136.59531	-2622.24854	249.17526	143.93103	-2568.74487	91.73008	152.46669	-2581.53906	95.78673	236.71281	-2518.75928	73.08570	197.77788	-2706.73853	61.10321	227.04663	-2727.14038	73.14394	191.92065	-2696.52490	58.69858	135.61064
1637	6.54400	-2442.26855	973.90796	308.11514	-2583.88135	939.21808	387.90741	-2545.78198	680.20422	421.84479	-2569.91797	639.49298	419.60571	-2600.16772	704.65460	438.96011	-2615.35962	662.51917	431.39581	-2672.49951	494.53937	395.70422	-2694.29541	471.91574	277.11899	-2587.28687	449.72720	393.92670	-2565.83911	410.72229	400.56058	-2638.19531	417.54852	400.38443	-2611.23730	382.44992	406.48798	-2475.40771	169.47127	369.27591	-2486.84766	177.61079	286.75641	-2404.28149	183.30836	329.15344	-2530.90527	67.93055	367.28232	-2583.67578	76.98606	301.60403	-2537.80518	76.86199	256.17697	-2453.89233	990.56622	207.28467	-2615.18335	958.68756	144.75473	-2563.82690	637.39758	126.80397	-2569.22827	593.73615	127.08284	-2624.47925	638.63190	127.21324	-2620.93384	595.81293	125.91055	-2584.97607	481.10980	118.35876	-2607.90625	484.00629	251.21954	-2567.45679	296.07822	141.92657	0.00000	0.00000	0.00000	-2627.77319	295.80295	136.59422	-2623.29858	249.10747	143.88895	-2568.93945	91.85834	152.55530	-2581.85474	95.88619	236.74648	-2519.06641	73.26868	197.84137	-2706.93726	60.82555	227.07118	-2728.00781	73.16063	192.08838	-2696.69556	58.50813	135.64639
1638	6.54800	-2447.28198	974.34790	307.92401	-2589.26953	939.62921	387.76508	-2552.68213	680.86908	421.94543	-2577.12280	640.33313	419.49213	-2606.72900	705.72546	438.71552	-2621.81592	663.44818	431.43060	-2680.74707	496.11783	394.95197	-2703.08374	473.72064	276.63092	-2595.80664	449.46591	392.19711	-2575.25732	409.99976	398.92242	-2647.59839	418.71347	399.73950	-2621.21436	382.85068	405.87579	-2491.07300	166.36670	368.90515	-2503.08154	174.12756	286.19211	-2419.85718	177.35011	327.63345	-2549.88232	67.08430	368.41998	-2603.01904	76.87957	303.12274	-2557.48901	74.36358	257.18286	-2459.19287	990.86096	207.32906	-2621.01685	959.03265	144.78769	-2567.48853	637.67120	126.79028	-2573.05542	593.75256	127.54466	-2628.21826	638.56903	127.15281	-2624.29004	595.73694	125.91485	-2587.66162	481.30576	118.44633	-2610.64502	483.98318	251.06517	-2569.12207	296.60068	141.71727	0.00000	0.00000	0.00000	-2629.24951	295.65887	136.55226	-2624.26538	248.91800	143.90398	-2569.11353	92.00808	152.67004	-2582.15674	95.99879	236.75758	-2519.24487	73.48684	197.90817	-2707.15552	60.58516	227.09663	-2728.22021	72.85535	192.09807	-2696.87329	58.33043	135.66852
